<?xml version="1.0" standalone="no"?>
<!DOCTYPE svg PUBLIC "-//W3C//DTD SVG 20010904//EN"
 "http://www.w3.org/TR/2001/REC-SVG-20010904/DTD/svg10.dtd">
<svg version="1.0" xmlns="http://www.w3.org/2000/svg"
 width="1280.000000pt" height="781.000000pt" viewBox="0 0 1280.000000 781.000000"
 preserveAspectRatio="xMidYMid meet">
<metadata>
Created by potrace 1.15, written by Peter Selinger 2001-2017
</metadata>
<g transform="translate(0.000000,781.000000) scale(0.100000,-0.100000)"
fill="#000000" stroke="none">
<path d="M6095 6363 c-281 -11 -771 -61 -1194 -121 l-256 -37 -235 32 c-600
83 -899 111 -1250 120 -460 11 -986 -36 -1767 -156 l-188 -29 -127 -86 c-70
-48 -132 -95 -137 -105 -6 -10 -15 -127 -21 -260 -11 -231 -3 -671 18 -1029
l7 -114 -60 -33 c-69 -37 -398 -210 -435 -228 -49 -24 -121 -106 -155 -180
-55 -116 -68 -182 -62 -327 5 -146 25 -220 87 -322 33 -56 48 -100 90 -270
135 -544 190 -961 176 -1325 l-6 -163 180 0 180 0 0 -161 c0 -91 4 -169 10
-180 9 -17 22 -19 104 -19 l94 0 -20 -37 c-34 -67 -11 -145 55 -180 28 -16 61
-18 272 -18 266 0 291 4 325 60 24 39 27 112 5 141 -8 10 -15 22 -15 26 0 4
37 8 83 10 l82 3 3 177 2 178 4510 0 4510 0 0 -188 c0 -133 4 -192 12 -200 8
-8 45 -12 100 -12 48 0 88 -2 88 -4 0 -2 -7 -17 -15 -32 -33 -64 -7 -146 57
-181 29 -16 61 -18 278 -18 220 0 249 2 273 18 60 39 84 121 52 177 -8 14 -14
28 -15 33 0 4 33 7 73 7 43 0 78 5 85 12 8 8 12 67 12 200 l0 188 198 0 197 0
0 262 c1 262 13 414 51 643 49 300 166 786 199 830 126 168 141 475 35 685
-54 106 -99 141 -362 278 l-237 123 -5 42 c-3 23 -8 128 -11 232 -7 221 -27
538 -55 850 -31 337 -9 287 -168 393 l-137 91 -235 35 c-287 43 -723 99 -965
123 -258 25 -974 26 -1225 0 -193 -20 -644 -76 -842 -105 l-128 -19 -157 23
c-876 128 -1442 169 -2018 147z"/>
</g>
</svg>
